<svg width="24" height="24" viewBox="0 0 24 24" fill="none" xmlns="http://www.w3.org/2000/svg">
<g id="Nav Items" clip-path="url(#clip0_2011_102)">
<path id="Vector" fill-rule="evenodd" clip-rule="evenodd" d="M11.7127 0C5.3134 0 0.0957031 5.38972 0.0957031 12C0.0957033 18.6103 5.3134 24 11.7127 24C18.112 24 23.3297 18.6103 23.3297 12C23.3297 5.38972 18.112 0 11.7127 0ZM10.9736 4.74948H12.7655V6.41563C13.8707 6.50819 14.961 6.81643 15.7973 7.32552L14.8862 9.59323C13.8856 9.03786 12.9001 8.76042 11.989 8.76042C10.7495 8.76042 10.3014 9.19235 10.3014 9.73229C10.3014 11.383 16.2305 10.149 16.2305 14.1292C16.2305 15.7644 15.0953 17.1837 12.7655 17.5385V19.2505H10.9736V17.6C9.48007 17.492 8.06119 17.0447 7.19498 16.4276L8.16559 14.175C9.09153 14.8075 10.4057 15.2396 11.6154 15.2396C12.84 15.2396 13.3181 14.8849 13.3181 14.3604C13.3181 12.648 7.37398 13.8975 7.37398 9.88646C7.37398 8.18949 8.55413 6.75489 10.9736 6.44635V4.74948Z" fill="white"/>
</g>
<defs>
<clipPath id="clip0_2011_102">
<rect width="23.234" height="24" fill="white" transform="translate(0.0957031)"/>
</clipPath>
</defs>
</svg>
